<svg xmlns="http://www.w3.org/2000/svg" viewBox="-6884.999 -408 147.861 34.402">
  <defs>
    <style>
      .cls-1 {
        fill: #fff;
      }

      .cls-2, .cls-4 {
        fill: none;
      }

      .cls-2 {
        stroke: #fff;
        stroke-width: 1.5px;
      }

      .cls-3 {
        stroke: none;
      }
    </style>
  </defs>
  <g id="Group_2879" data-name="Group 2879" transform="translate(60 341)">
    <path id="Union_116" data-name="Union 116" class="cls-1" d="M7781.517,645.889V636.3h2.927v9.486c0,3.129,1.613,4.744,4.238,4.744s4.239-1.515,4.239-4.644V636.3h2.927v9.486c0,4.944-2.825,7.467-7.166,7.467C7784.242,653.256,7781.517,650.733,7781.517,645.889Zm-32.5,0V636.3h2.925v9.486c0,3.129,1.616,4.744,4.24,4.744s4.239-1.515,4.239-4.644V636.3h2.927v9.486c0,4.944-2.827,7.467-7.166,7.467S7749.021,650.733,7749.021,645.889Zm-39.157,0V636.3h2.925v9.486c0,3.129,1.615,4.744,4.24,4.744s4.238-1.515,4.238-4.644V636.3h2.927v9.486c0,4.944-2.827,7.467-7.165,7.467S7709.864,650.733,7709.864,645.889ZM7692,644.68a8.466,8.466,0,0,1,8.577-8.681,8.77,8.77,0,0,1,6.562,2.625l-1.919,2.119a6.569,6.569,0,0,0-4.642-2.019,5.92,5.92,0,0,0-.1,11.809,6.491,6.491,0,0,0,4.742-2.121l1.919,1.919a8.522,8.522,0,0,1-6.764,2.925A8.4,8.4,0,0,1,7692,644.68Zm106.673,5.854,1.715-2.121a7.575,7.575,0,0,0,5.248,2.121c1.815,0,2.927-.808,2.927-2.121,0-1.21-.708-1.815-3.735-2.523-3.533-.806-5.55-1.917-5.55-4.944,0-2.825,2.421-4.844,5.65-4.844a9.041,9.041,0,0,1,6.056,2.119l-1.615,2.221a7.724,7.724,0,0,0-4.541-1.717c-1.715,0-2.725.91-2.725,2.019,0,1.312.808,1.817,3.937,2.623,3.531.808,5.348,2.121,5.348,4.844,0,3.129-2.423,4.946-5.954,4.946A9.7,9.7,0,0,1,7798.674,650.534Zm-70.343,2.523V636.3h3.23l5.046,7.871,5.046-7.871h3.129v16.652h-2.927V641.045l-5.248,7.873h-.1l-5.248-7.771v11.909Zm39.259-.1V636.3h2.927v14.029h8.779v2.623Z" transform="translate(-14637 -1379.452)"/>
    <path id="Union_115" data-name="Union 115" class="cls-1" d="M13.362,14.93l1.683,1.423L0,30.186Zm7.05,8.136.316-1.423c.1-.407.315-.814.736-.814l1.894-.2a.731.731,0,0,1,.841.611c0,.407-.21,1.729-.947,1.729l-2,.61C20.832,23.575,20.306,23.575,20.412,23.066ZM17.99,20.015c-.947-.813,1.157-4.882,1.683-5.9a41.437,41.437,0,0,1,4-5.7c.211-.305.105-.2-.105-.1A43.3,43.3,0,0,0,20.2,11.574c-1.367,1.525-2.735,3.153-2.945,3.458-.422.509-.948.611-1.263.305L14.2,13.709a.663.663,0,0,1,0-1.017L21.779,5.98c.315-.2.631-.407,1.052,0L23.988,7.1A2.223,2.223,0,0,1,25.25,6.59a1.958,1.958,0,0,1,.842.028V5.471c-.631-.61-.737-2.034-.211-3.458C26.3.894,27.776-.327,29.039.08c1.578.509,1.578,2.849.526,3.967A5.1,5.1,0,0,1,27.25,5.573V7.11c.24.139.455.28.631.4a4.858,4.858,0,0,1,.947,3.56c-.421,2.34-2.735,4.882-4,6.1a13.949,13.949,0,0,1-3.787,2.441,8.04,8.04,0,0,1-2.455.558A.888.888,0,0,1,17.99,20.015Zm12.521-8.238a.8.8,0,0,1-.736-.814l.1-1.932a.8.8,0,0,1,.842-.712l1.473-.2a.777.777,0,0,1,.737.712l-.526,2.543a.8.8,0,0,1-.842.711Z" transform="translate(-6831.541 -744.784)"/>
    <g id="Ellipse_673" data-name="Ellipse 673" class="cls-2" transform="translate(-6809.291 -749)">
      <ellipse class="cls-3" cx="6.076" cy="6.003" rx="6.076" ry="6.003"/>
      <ellipse class="cls-4" cx="6.076" cy="6.003" rx="5.326" ry="5.253"/>
    </g>
  </g>
</svg>
